# xmcd
#
# Track frame offsets:
#	150
#	14673
#	26403
#	46656
#	59785
#	88273
#	99783
#	113669
#	127262
#	138010
#
# Disc length: 1978 seconds
#
# Revision: 1
# Processed by: cddbd v1.5.2PL0 Copyright (c) Steve Scherf et al.
# Submitted via: audiograbber 1.83.01
#
DISCID=8107b80a
DTITLE=Hawkeye and Hoe - To Drunk To Cluck
DYEAR=1999
DGENRE=Country
TTITLE0=Going Down The River
TTITLE1=Oh Mule Oh
TTITLE2=Tom Dooley
TTITLE3=Freight Train
TTITLE4=Baby Please Don't Go - I Will Survive - Rawhide - Counting The Cattle -
TTITLE4=Anarchy In The U.K.
TTITLE5=Folsom Prison
TTITLE6=I Wanna Be Like You
TTITLE7=Jump Down Turn Around
TTITLE8=Should I Stay Or Should I Go
TTITLE9=Whiskey In The Jar
EXTD=
EXTT0=
EXTT1=
EXTT2=
EXTT3=
EXTT4=
EXTT5=
EXTT6=
EXTT7=
EXTT8=
EXTT9=
PLAYORDER=
